<svg xmlns="http://www.w3.org/2000/svg"  viewBox="0 0 100 100" width="100px" height="100px"><polygon fill="#656566" points="3,65 13.004,65 13.004,46.994 29.012,63.012 44.998,46.949 44.998,52 55.004,42 55.004,35 44.998,34.983 29.012,51 13.004,35.002 3,35.004"/><path fill="#1f212b" d="M13.004,66H3c-0.553,0-1-0.448-1-1V35.004c0-0.552,0.447-1,1-1l10.004-0.002 c0.265,0,0.52,0.105,0.707,0.292l15.3,15.291L44.29,34.277c0.188-0.188,0.442-0.293,0.708-0.293c0.001,0,0.001,0,0.002,0 L55.006,34c0.552,0.001,0.998,0.448,0.998,1v7c0,0.265-0.105,0.52-0.293,0.708l-10.006,10c-0.286,0.285-0.715,0.372-1.09,0.216 c-0.374-0.155-0.617-0.52-0.617-0.924v-2.628L29.721,63.717c-0.188,0.188-0.442,0.294-0.708,0.294h-0.001 c-0.266,0-0.52-0.105-0.707-0.293l-14.301-14.31V65C14.004,65.552,13.557,66,13.004,66z M4,64h8.004V46.994 c0-0.404,0.244-0.769,0.617-0.924c0.375-0.154,0.804-0.069,1.09,0.217l15.3,15.309l15.278-15.352 c0.286-0.288,0.716-0.372,1.091-0.219c0.374,0.154,0.618,0.52,0.618,0.924v2.638l8.006-8.001v-5.587l-8.592-0.015L29.72,51.707 C29.532,51.894,29.277,52,29.013,52c-0.001,0-0.001,0-0.001,0c-0.265,0-0.52-0.105-0.707-0.292L12.59,36.002L4,36.004V64z"/><polygon fill="#656566" points="97,35 86.996,35 86.996,53.034 71,37.006 55.004,53.034 55.004,48 44.998,57.996 44.998,65 55.004,65 71,48.994 86.996,65 97,65"/><path fill="#1f212b" d="M97,66H86.996c-0.266,0-0.52-0.105-0.707-0.293L71,50.409L55.711,65.707 C55.523,65.895,55.27,66,55.004,66H44.998c-0.553,0-1-0.448-1-1v-7.004c0-0.266,0.105-0.52,0.293-0.708l10.006-9.996 c0.287-0.286,0.716-0.37,1.09-0.216c0.374,0.155,0.617,0.52,0.617,0.924v2.617l14.288-14.317c0.375-0.376,1.041-0.376,1.416,0 l14.288,14.317V35c0-0.552,0.447-1,1-1H97c0.553,0,1,0.448,1,1v30C98,65.552,97.553,66,97,66z M87.41,64H96V36h-8.004v17.034 c0,0.405-0.244,0.77-0.618,0.924c-0.372,0.155-0.804,0.068-1.09-0.217L71,38.421L55.712,53.741 c-0.286,0.286-0.718,0.373-1.09,0.217c-0.374-0.154-0.618-0.519-0.618-0.924v-2.622l-8.006,7.998V64h8.592l15.703-15.713 c0.375-0.375,1.039-0.375,1.414,0L87.41,64z"/><path fill="#1f212b" d="M93.5,62c-0.276,0-0.5-0.224-0.5-0.5v-18c0-0.276,0.224-0.5,0.5-0.5s0.5,0.224,0.5,0.5v18	C94,61.776,93.776,62,93.5,62z"/><path fill="#1f212b" d="M93.5,41c-0.276,0-0.5-0.224-0.5-0.5v-2c0-0.276,0.224-0.5,0.5-0.5s0.5,0.224,0.5,0.5v2	C94,40.776,93.776,41,93.5,41z"/><path fill="#1f212b" d="M6.5,62C6.224,62,6,61.776,6,61.5v-18C6,43.224,6.224,43,6.5,43S7,43.224,7,43.5v18	C7,61.776,6.776,62,6.5,62z"/><path fill="#1f212b" d="M6.5,41C6.224,41,6,40.776,6,40.5v-2C6,38.224,6.224,38,6.5,38S7,38.224,7,38.5v2	C7,40.776,6.776,41,6.5,41z"/></svg>